<svg width="61" height="60" viewBox="0 0 61 60" fill="none" xmlns="http://www.w3.org/2000/svg">
<g clip-path="url(#clip0_2013_178)">
<path d="M46.6869 18.7788L43.7794 21.6863C45.833 24.8681 46.6369 28.697 46.0365 32.4361C45.4361 36.1751 43.4737 39.5599 40.5272 41.9388C37.5806 44.3176 33.8583 45.5224 30.0767 45.3212C26.2951 45.1199 22.7216 43.5269 20.0442 40.8487C17.3667 38.1706 15.7747 34.5967 15.5745 30.815C15.3743 27.0334 16.5801 23.3113 18.9597 20.3654C21.3394 17.4196 24.7247 15.4581 28.4639 14.8587C32.2031 14.2593 36.0319 15.0643 39.2132 17.1188L42.1194 14.2125C38.1593 11.3985 33.2866 10.1748 28.4669 10.784C23.6472 11.3932 19.2322 13.7907 16.0968 17.5016C12.9614 21.2124 11.3345 25.9658 11.5385 30.8196C11.7425 35.6733 13.7625 40.2734 17.1981 43.7081C20.6338 47.1428 25.2344 49.1615 30.0882 49.3642C34.9421 49.5668 39.6949 47.9386 43.4049 44.8023C47.1149 41.6659 49.5113 37.2502 50.1192 32.4303C50.727 27.6104 49.502 22.738 46.6869 18.7788Z" fill="#0067B2"/>
<path d="M8.17564 30.4106C8.06801 30.4105 7.96484 30.3676 7.88879 30.2914C7.81273 30.2153 7.77002 30.112 7.77002 30.0044C7.77697 23.8734 10.2156 17.9955 14.5508 13.6602C18.8861 9.32495 24.764 6.88634 30.895 6.87939C31.0028 6.87939 31.1061 6.9222 31.1823 6.99838C31.2585 7.07457 31.3013 7.1779 31.3013 7.28564C31.3013 7.39339 31.2585 7.49672 31.1823 7.57291C31.1061 7.64909 31.0028 7.69189 30.895 7.69189C24.9795 7.69884 19.3082 10.0518 15.1252 14.2347C10.9422 18.4176 8.58901 24.0888 8.58189 30.0044C8.58214 30.0578 8.5718 30.1108 8.55148 30.1602C8.53115 30.2096 8.50123 30.2544 8.46346 30.2922C8.42569 30.33 8.3808 30.3599 8.3314 30.3802C8.282 30.4006 8.22906 30.4109 8.17564 30.4106ZM33.3294 7.69189H32.5175C32.4098 7.69189 32.3064 7.64909 32.2303 7.57291C32.1541 7.49672 32.1113 7.39339 32.1113 7.28564C32.1113 7.1779 32.1541 7.07457 32.2303 6.99838C32.3064 6.9222 32.4098 6.87939 32.5175 6.87939H33.3294C33.4371 6.87939 33.5405 6.9222 33.6167 6.99838C33.6928 7.07457 33.7356 7.1779 33.7356 7.28564C33.7356 7.39339 33.6928 7.49672 33.6167 7.57291C33.5405 7.64909 33.4371 7.69189 33.3294 7.69189ZM30.895 53.1294C30.7913 53.1236 30.6938 53.0784 30.6224 53.003C30.5511 52.9275 30.5113 52.8276 30.5113 52.7238C30.5113 52.6199 30.5511 52.52 30.6224 52.4446C30.6938 52.3692 30.7913 52.3239 30.895 52.3181C36.8109 52.3115 42.4825 49.9586 46.6657 45.7755C50.8489 41.5924 53.202 35.9209 53.2088 30.005C53.2145 29.9013 53.2598 29.8038 53.3352 29.7324C53.4106 29.6611 53.5105 29.6213 53.6144 29.6213C53.7182 29.6213 53.8181 29.6611 53.8936 29.7324C53.969 29.8038 54.0143 29.9013 54.02 30.005C54.0131 36.136 51.5745 42.0139 47.2392 46.3492C42.9039 50.6845 37.026 53.1231 30.895 53.13V53.1294ZM29.2725 53.1294H28.4613C28.3576 53.1236 28.26 53.0784 28.1887 53.003C28.1173 52.9275 28.0775 52.8276 28.0775 52.7238C28.0775 52.6199 28.1173 52.52 28.1887 52.4446C28.26 52.3692 28.3576 52.3239 28.4613 52.3181H29.2725C29.3774 52.3223 29.4767 52.3668 29.5494 52.4425C29.6222 52.5182 29.6628 52.6191 29.6628 52.7241C29.6628 52.8291 29.6222 52.93 29.5494 53.0057C29.4767 53.0813 29.3774 53.1259 29.2725 53.13V53.1294ZM43.8775 9.31439H40.6338C40.5301 9.30864 40.4325 9.26339 40.3612 9.18795C40.2898 9.11252 40.25 9.01261 40.25 8.90877C40.25 8.80492 40.2898 8.70502 40.3612 8.62959C40.4325 8.55415 40.5301 8.5089 40.6338 8.50314H43.8775C43.9851 8.50314 44.0883 8.54588 44.1643 8.62195C44.2404 8.69802 44.2831 8.80119 44.2831 8.90877C44.2831 9.01635 44.2404 9.11952 44.1643 9.19559C44.0883 9.27166 43.9851 9.31439 43.8775 9.31439Z" fill="#263238"/>
<path d="M42.5406 10.7093C42.4363 10.7092 42.3361 10.6689 42.2606 10.5968C42.2245 10.5616 42.1956 10.5196 42.1758 10.4731C42.1559 10.4267 42.1455 10.3767 42.145 10.3262V7.26247C42.145 7.1606 42.1869 7.0631 42.2613 6.99122C42.3363 6.91871 42.4366 6.87817 42.541 6.87817C42.6453 6.87817 42.7456 6.91871 42.8206 6.99122C42.8956 7.0631 42.9369 7.1606 42.9369 7.26247V10.325C42.9373 10.3758 42.9272 10.4261 42.9073 10.4729C42.8874 10.5197 42.8581 10.5619 42.8213 10.5968C42.7461 10.6697 42.6453 10.7105 42.5406 10.7093ZM53.6244 18.755H50.4588C50.3544 18.7552 50.254 18.7149 50.1788 18.6425C50.1424 18.6073 50.1135 18.5652 50.0938 18.5187C50.074 18.4721 50.0639 18.4221 50.0639 18.3715C50.0639 18.321 50.074 18.2709 50.0938 18.2244C50.1135 18.1778 50.1424 18.1357 50.1788 18.1006C50.254 18.0282 50.3544 17.9879 50.4588 17.9881H53.6238C53.7288 17.9881 53.8294 18.0287 53.9038 18.1006C53.9403 18.1357 53.9693 18.1779 53.9892 18.2245C54.009 18.2711 54.0193 18.3212 54.0194 18.3718C54.0193 18.4224 54.009 18.4724 53.9891 18.5189C53.9692 18.5654 53.9402 18.6074 53.9038 18.6425C53.8286 18.7149 53.7288 18.7552 53.6244 18.755Z" fill="#263238"/>
<path d="M51.8325 20.63C51.791 20.6298 51.7502 20.62 51.7131 20.6013C51.6739 20.5816 51.6392 20.5539 51.6113 20.52C51.5816 20.4838 51.5587 20.4425 51.5438 20.3981C51.5279 20.3519 51.5199 20.3033 51.52 20.2544V17.255C51.52 17.1556 51.5531 17.06 51.6119 16.99C51.6383 16.9565 51.6717 16.9293 51.7099 16.9103C51.748 16.8913 51.7899 16.8809 51.8325 16.88C51.9156 16.88 51.995 16.9194 52.0538 16.99C52.1139 17.0651 52.1462 17.1588 52.145 17.255V20.255C52.1451 20.3039 52.1371 20.3525 52.1213 20.3988C52.1062 20.4429 52.0834 20.484 52.0538 20.52C52.026 20.5538 51.9915 20.5815 51.9525 20.6013C51.9153 20.6201 51.8742 20.6299 51.8325 20.63Z" fill="#263238"/>
<path d="M53.395 12.1925L48.7075 16.88L44.6056 16.2944L44.02 12.1925L48.7075 7.505L49.2938 11.6063L53.395 12.1925Z" fill="#EFF4F7"/>
<path d="M48.3931 17.505C48.3743 17.5051 48.3555 17.5036 48.3369 17.5006L44.3181 16.9269C44.2309 16.9145 44.1501 16.8742 44.0878 16.812C44.0255 16.7498 43.985 16.669 43.9725 16.5819L43.3988 12.5619C43.39 12.4992 43.3959 12.4354 43.416 12.3755C43.436 12.3155 43.4697 12.261 43.5144 12.2162L48.1063 7.62497C48.1596 7.57147 48.2267 7.53388 48.3002 7.51643C48.3737 7.49898 48.4506 7.50235 48.5222 7.52617C48.5939 7.55 48.6575 7.59333 48.7059 7.6513C48.7543 7.70927 48.7856 7.77958 48.7963 7.85435L49.3275 11.5712L53.0438 12.1025C53.1189 12.1125 53.1897 12.1434 53.2481 12.1917C53.3066 12.2399 53.3503 12.3036 53.3743 12.3755C53.3983 12.4474 53.4017 12.5246 53.384 12.5983C53.3664 12.672 53.3284 12.7393 53.2744 12.7925L48.6806 17.3856C48.6429 17.4234 48.5981 17.4533 48.5487 17.4737C48.4994 17.4941 48.4465 17.5051 48.3931 17.505ZM44.7338 16.1662L48.2488 16.6687L52.1244 12.7937L48.9094 12.335C48.8223 12.3226 48.7415 12.2823 48.6793 12.22C48.6171 12.1578 48.5768 12.0771 48.5644 11.99L48.105 8.7756L44.2313 12.65L44.7338 16.1662Z" fill="#263238"/>
<path d="M44.4975 16.4025L44.2094 14.38L29.475 29.1138C29.1734 29.4212 29.0053 29.8354 29.0073 30.2661C29.0094 30.6969 29.1814 31.1094 29.486 31.414C29.7906 31.7186 30.2031 31.8906 30.6339 31.8927C31.0647 31.8948 31.4788 31.7267 31.7863 31.425L46.52 16.6913L44.4975 16.4025Z" fill="#EFF4F7"/>
<path d="M30.4837 32.505C30.0706 32.5055 29.6667 32.3834 29.3231 32.1541C28.9794 31.9248 28.7116 31.5987 28.5534 31.2171C28.3952 30.8355 28.3539 30.4155 28.4346 30.0103C28.5154 29.6052 28.7145 29.2331 29.0069 28.9413L44.0663 13.8788C44.121 13.8233 44.1902 13.7843 44.266 13.7661C44.3417 13.748 44.4211 13.7514 44.495 13.776C44.569 13.8005 44.6345 13.8453 44.6844 13.9052C44.7342 13.9652 44.7662 14.0378 44.7769 14.115L45.0281 15.8731L46.7856 16.1231C46.8628 16.134 46.9353 16.1663 46.9951 16.2162C47.0549 16.2661 47.0996 16.3317 47.1241 16.4057C47.1486 16.4796 47.1519 16.5589 47.1338 16.6347C47.1156 16.7104 47.0766 16.7796 47.0212 16.8344L31.9619 31.8969C31.7678 32.0907 31.5372 32.2442 31.2836 32.3486C31.0299 32.453 30.7581 32.5061 30.4837 32.505ZM44.0669 15.0613L29.5981 29.5313C29.3703 29.7676 29.2443 30.084 29.2473 30.4122C29.2502 30.7405 29.3819 31.0545 29.614 31.2867C29.846 31.5189 30.1599 31.6508 30.4882 31.654C30.8164 31.6572 31.1329 31.5314 31.3694 31.3038L45.8381 16.8331L44.5975 16.6556C44.5079 16.6429 44.4248 16.6014 44.3608 16.5374C44.2968 16.4733 44.2553 16.3903 44.2425 16.3006L44.0675 15.06L44.0669 15.0613Z" fill="#263238"/>
<path d="M41.3788 24.8188L38.2494 27.9481C38.7842 29.5367 38.7663 31.2593 38.1987 32.8364C37.631 34.4134 36.5469 35.7523 35.1224 36.6356C33.6979 37.5189 32.0166 37.8947 30.3516 37.702C28.6866 37.5093 27.1356 36.7594 25.9505 35.5742C24.7654 34.3889 24.0157 32.8378 23.8233 31.1728C23.6308 29.5077 24.0068 27.8265 24.8903 26.4021C25.7738 24.9777 27.1128 23.8938 28.6899 23.3264C30.2671 22.7589 31.9897 22.7413 33.5782 23.2763L36.7075 20.1469C34.2645 18.8257 31.4276 18.4281 28.7155 19.0267C26.0034 19.6253 23.5974 21.1801 21.9374 23.4068C20.2774 25.6335 19.4744 28.3834 19.6752 31.1535C19.876 33.9236 21.0672 36.5288 23.031 38.4928C24.9948 40.4569 27.5999 41.6484 30.3699 41.8496C33.14 42.0508 35.8899 41.2481 38.1169 39.5885C40.3438 37.9288 41.899 35.523 42.4979 32.811C43.0969 30.099 42.6996 27.262 41.3788 24.8188Z" fill="#0067B2"/>
<path d="M43.4975 22.0125L40.6182 24.9519C41.8817 27.3442 42.2604 30.1058 41.6875 32.75C41.115 35.3956 39.6288 37.7431 37.5 39.3625C35.3845 40.978 32.7505 41.7629 30.0957 41.5687C27.4482 41.3719 24.9582 40.2094 23.0813 38.2931C21.1976 36.3614 20.0611 33.8235 19.8744 31.1319C19.6804 28.4363 20.4462 25.759 22.0363 23.5737C23.6225 21.4012 25.9225 19.8844 28.5144 19.3C31.1086 18.7162 33.8268 19.1052 36.1532 20.3931L39.0325 17.4537C35.937 15.406 32.1833 14.6003 28.52 15.1975C24.8638 15.7969 21.5532 17.755 19.2263 20.6956C16.8988 23.6369 15.72 27.3525 15.9163 31.1275C16.1119 34.9025 17.6694 38.4712 20.2875 41.1444C22.9063 43.8175 26.4007 45.4075 30.0988 45.6081C33.7969 45.8087 37.4369 44.6062 40.3188 42.2306C43.2 39.8556 45.1188 36.4769 45.7057 32.7437C46.2939 29.0173 45.5092 25.204 43.4975 22.0125Z" fill="white"/>
<path d="M30.8956 50.005C27.7482 50.0061 24.6449 49.2639 21.8385 47.8389C19.0321 46.4138 16.6019 44.3462 14.7456 41.8044C12.889 39.2625 11.6583 36.3184 11.1538 33.2114C10.6494 30.1044 10.8852 26.9221 11.8423 23.9235C12.7994 20.9248 14.4506 18.1943 16.6618 15.954C18.873 13.7137 21.5816 12.0269 24.5675 11.0306C27.5532 10.0353 30.7318 9.75908 33.8444 10.2243C36.9571 10.6896 39.9159 11.8833 42.48 13.7081C42.5683 13.7709 42.628 13.8661 42.6461 13.9729C42.6641 14.0796 42.639 14.1892 42.5763 14.2775C42.5135 14.3658 42.4183 14.4255 42.3115 14.4435C42.2047 14.4616 42.0952 14.4365 42.0069 14.3737C38.0871 11.5863 33.2629 10.3736 28.4909 10.9762C23.719 11.5787 19.3476 13.9525 16.2438 17.6269C13.1389 21.3016 11.5275 26.0084 11.7288 30.815C11.9301 35.6215 13.9294 40.1771 17.3306 43.5794C19.8681 46.1182 23.0672 47.8939 26.5639 48.7046C30.0606 49.5154 33.7146 49.3285 37.1104 48.1653C40.5062 47.0022 43.5074 44.9094 45.7727 42.125C48.038 39.3406 49.4764 35.9764 49.9244 32.415C50.5267 27.6423 49.3146 22.8176 46.5282 18.8962C46.4716 18.8079 46.4512 18.7012 46.4711 18.5982C46.491 18.4952 46.5498 18.4038 46.6352 18.343C46.7207 18.2821 46.8262 18.2564 46.9301 18.2712C47.0339 18.286 47.1281 18.3402 47.1931 18.4225C48.7848 20.6599 49.8985 23.2011 50.465 25.8878C51.0314 28.5745 51.0385 31.3491 50.4856 34.0386C49.9328 36.7281 48.832 39.275 47.2517 41.5204C45.6715 43.7659 43.6457 45.6618 41.3006 47.09C38.1659 48.9989 34.5659 50.0075 30.8956 50.005Z" fill="#263238"/>
<path d="M30.8937 45.63C28.4645 45.6303 26.0686 45.0639 23.8966 43.9759C21.7246 42.8879 19.8363 41.3082 18.3819 39.3625C16.5594 36.9244 15.4887 34.007 15.3013 30.9688C15.1139 27.9306 15.818 24.9037 17.3271 22.2601C18.8361 19.6165 21.0845 17.4712 23.7959 16.0878C26.5074 14.7043 29.5639 14.1429 32.59 14.4725C35.0046 14.7365 37.3244 15.56 39.365 16.8775C39.4502 16.937 39.509 17.0272 39.529 17.1292C39.549 17.2311 39.5287 17.3369 39.4724 17.4242C39.416 17.5114 39.328 17.5735 39.2268 17.5972C39.1257 17.6209 39.0193 17.6044 38.93 17.5513C36.0789 15.7247 32.6903 14.9245 29.3233 15.2826C25.9563 15.6408 22.8119 17.1358 20.4087 19.5213C18.3357 21.595 16.924 24.2368 16.3521 27.1127C15.7801 29.9886 16.0737 32.9696 17.1956 35.6787C18.3175 38.3878 20.2174 40.7035 22.6551 42.333C25.0929 43.9626 27.959 44.8328 30.8912 44.8338C34.8225 44.8338 38.5937 43.2713 41.3744 40.4913C43.7598 38.0873 45.2547 34.9423 45.6127 31.5747C45.9708 28.207 45.1704 24.818 43.3437 21.9663C43.2861 21.8769 43.2662 21.7683 43.2886 21.6643C43.311 21.5604 43.3738 21.4696 43.4631 21.4119C43.5525 21.3542 43.6611 21.3344 43.765 21.3568C43.869 21.3791 43.9598 21.4419 44.0175 21.5313C45.1582 23.2959 45.9312 25.2725 46.2902 27.3429C46.6492 29.4132 46.5867 31.5347 46.1066 33.5804C45.6265 35.626 44.7385 37.5538 43.496 39.2482C42.2534 40.9427 40.6817 42.369 38.875 43.4419C36.4598 44.8757 33.7025 45.632 30.8937 45.63Z" fill="#263238"/>
<path d="M30.9025 41.88C28.5523 41.8797 26.255 41.1826 24.3009 39.8769C22.3468 38.5711 20.8238 36.7153 19.9244 34.544C19.0249 32.3728 18.7894 29.9836 19.2476 27.6785C19.7058 25.3734 20.8372 23.2559 22.4987 21.5938C24.3145 19.794 26.6593 18.6238 29.1891 18.2548C31.7188 17.8858 34.3003 18.3376 36.5544 19.5438C36.6463 19.5976 36.7137 19.685 36.7424 19.7876C36.7711 19.8902 36.7588 19.9999 36.7081 20.0936C36.6574 20.1872 36.5723 20.2576 36.4707 20.2897C36.3691 20.3218 36.2591 20.3132 36.1637 20.2656C34.0659 19.1423 31.6631 18.7213 29.3083 19.0644C26.9535 19.4075 24.7707 20.4967 23.0806 22.1719C22.0531 23.1994 21.2381 24.4191 20.6821 25.7616C20.126 27.104 19.8398 28.5429 19.8398 29.9959C19.8398 31.449 20.126 32.8878 20.6821 34.2303C21.2381 35.5728 22.0531 36.7925 23.0806 37.82C24.1081 38.8475 25.3279 39.6625 26.6703 40.2186C28.0128 40.7746 29.4516 41.0608 30.9047 41.0608C32.3577 41.0608 33.7966 40.7746 35.139 40.2186C36.4815 39.6625 37.7013 38.8475 38.7287 37.82C40.4035 36.1294 41.4923 33.9465 41.8355 31.5916C42.1787 29.2368 41.7582 26.834 40.6356 24.7356C40.6101 24.6884 40.5941 24.6365 40.5886 24.5831C40.5831 24.5296 40.5882 24.4756 40.6036 24.4241C40.619 24.3727 40.6444 24.3247 40.6783 24.283C40.7122 24.2414 40.754 24.2068 40.8012 24.1813C40.8485 24.1557 40.9004 24.1398 40.9538 24.1343C41.0072 24.1288 41.0613 24.1339 41.1127 24.1493C41.1642 24.1646 41.2122 24.19 41.2538 24.2239C41.2955 24.2578 41.3301 24.2996 41.3556 24.3469C42.5616 26.6005 43.0135 29.1813 42.6448 31.7106C42.2762 34.2399 41.1065 36.5844 39.3075 38.4C38.2063 39.5071 36.8964 40.3847 35.4536 40.982C34.0109 41.5794 32.464 41.8846 30.9025 41.88Z" fill="#263238"/>
<path d="M30.6025 38.1293C29.4672 38.1308 28.3452 37.8851 27.3143 37.4094C26.2835 36.9337 25.3685 36.2393 24.633 35.3744C23.8975 34.5095 23.3591 33.495 23.055 32.4011C22.751 31.3072 22.6887 30.1603 22.8725 29.04C23.1489 27.3513 23.971 25.7996 25.2132 24.6227C26.4553 23.4457 28.0489 22.7082 29.75 22.5231C30.8785 22.4006 32.0201 22.5251 33.0956 22.8881C33.1492 22.9035 33.1991 22.9295 33.2423 22.9647C33.2855 22.9999 33.3212 23.0435 33.3471 23.0928C33.373 23.1421 33.3887 23.1962 33.3931 23.2517C33.3975 23.3073 33.3907 23.3632 33.3729 23.416C33.3552 23.4688 33.3269 23.5175 33.2898 23.5591C33.2527 23.6007 33.2076 23.6343 33.1572 23.658C33.1067 23.6817 33.052 23.6949 32.9963 23.6969C32.9406 23.6988 32.8851 23.6894 32.8331 23.6693C31.3361 23.1653 29.7126 23.1823 28.2265 23.7175C26.7403 24.2527 25.4788 25.2747 24.6469 26.6175C24.0254 27.6203 23.6673 28.7639 23.6057 29.9421C23.5441 31.1202 23.781 32.2949 24.2945 33.3571C24.8079 34.4193 25.5813 35.3346 26.5429 36.0182C27.5045 36.7018 28.6231 37.1315 29.795 37.2675C31.3642 37.449 32.9487 37.0945 34.291 36.2617C35.6333 35.4288 36.6545 34.1666 37.1888 32.68C37.7238 31.1937 37.74 29.57 37.2363 28.0725C37.219 28.0213 37.212 27.9671 37.2157 27.9132C37.2194 27.8593 37.2337 27.8067 37.2577 27.7583C37.2817 27.7099 37.315 27.6667 37.3558 27.6311C37.3965 27.5956 37.4438 27.5685 37.495 27.5512C37.5462 27.534 37.6003 27.527 37.6542 27.5307C37.7082 27.5344 37.7608 27.5486 37.8092 27.5726C37.8576 27.5967 37.9008 27.63 37.9363 27.6707C37.9719 27.7114 37.999 27.7588 38.0163 27.81C38.6161 29.5856 38.5581 31.5176 37.8529 33.254C37.1478 34.9905 35.8423 36.4159 34.1744 37.2706C33.0689 37.8367 31.8445 38.1311 30.6025 38.1293ZM44.5838 16.7281C44.5028 16.7277 44.4236 16.7035 44.3563 16.6584C44.289 16.6133 44.2365 16.5494 44.2054 16.4746C44.1742 16.3998 44.1658 16.3175 44.1812 16.238C44.1966 16.1585 44.2351 16.0852 44.2919 16.0275L48.9525 11.365C49.0311 11.2945 49.1336 11.2569 49.2391 11.2597C49.3446 11.2626 49.445 11.3058 49.5196 11.3804C49.5942 11.455 49.6374 11.5554 49.6402 11.6609C49.6431 11.7663 49.6055 11.8689 49.535 11.9475L44.8744 16.61C44.8361 16.6479 44.7908 16.6779 44.7409 16.6983C44.691 16.7187 44.6376 16.729 44.5838 16.7287V16.7281Z" fill="#263238"/>
</g>
<defs>
<clipPath id="clip0_2013_178">
<rect width="60" height="60" fill="white" transform="translate(0.890015)"/>
</clipPath>
</defs>
</svg>
